<svg xmlns="http://www.w3.org/2000/svg" style="isolation:isolate" viewBox="0 0 368 337">
  <g id="backdrop">
    <defs>
      <filter id="a" x="-200%" y="-200%" width="400%" height="400%" filterUnits="objectBoundingBox" color-interpolation-filters="sRGB">
        <feOffset xmlns="http://www.w3.org/2000/svg" in="SourceGraphic"/>
        <feGaussianBlur xmlns="http://www.w3.org/2000/svg" stdDeviation="8.158" result="pf_100_offsetBlur"/>
        <feComposite xmlns="http://www.w3.org/2000/svg" in="SourceGraphic" in2="pf_100_offsetBlur" result="pf_100_inverse" operator="out"/>
        <feFlood xmlns="http://www.w3.org/2000/svg" flood-color="#FF4081" flood-opacity="1" result="pf_100_color"/>
        <feComposite xmlns="http://www.w3.org/2000/svg" in="pf_100_color" in2="pf_100_inverse" operator="in" result="pf_100_shadow"/>
        <feComposite xmlns="http://www.w3.org/2000/svg" in="pf_100_shadow" in2="SourceGraphic"/>
      </filter>
    </defs>
    <g filter="url(#a)">
      <radialGradient id="b" fx=".505" fy=".501" cx=".5" cy=".5" r=".5" gradientTransform="matrix(288 -1.051 0 -291.349 -143.659 193.323)" gradientUnits="userSpaceOnUse">
        <stop offset="15.652%" stop-color="#ff4081"/>
        <stop offset="100%" stop-color="#303f9f"/>
      </radialGradient>
      <path d="M152.014 121.983c-1.191 17.422-4.329 34.964-7.726 41.854-1.097 2.227-4.004 4.034-6.487 4.034H74.103q-3.353.317-5.055 1.817c-1.703 1.5-2.145 3.38-2.145 4.747v1.762a4.3 4.3 0 002.145 3.712c3.089 1.782 6.615 7.436 6.615 13.907 0 9.641-7.827 17.468-17.468 17.468s-17.468-7.827-17.468-17.468c0-6.476 3.532-12.134 6.629-13.911 1.186-.68 2.148-1.967 2.148-3.708v-1.762c0-1.367-.379-3.31-2.042-4.757q-1.663-1.447-5.077-1.807H6.234a4.486 4.486 0 01-4.484-4.483V68.215c0-11.73 9.523-21.253 21.253-21.253h114.798c2.483 0 5.021 1.947 5.664 4.345q5.499 20.506 8.25 41.981c.115.895.216 1.818.305 2.768-1.7.317-2.766.027-3.35-1.021a13.539 13.539 0 00-2.947-3.451 21.806 21.806 0 00-4.214-2.833 24.955 24.955 0 00-11.389-2.804 23.073 23.073 0 00-16.321 6.758 23.061 23.061 0 00-6.744 16.307 23.11 23.11 0 006.744 16.307 23.074 23.074 0 0016.321 6.759 24.868 24.868 0 0011.375-2.805 22.451 22.451 0 004.199-2.804 13.711 13.711 0 002.976-3.465c.754-1.01 1.978-1.24 3.344-1.021z" fill="url(#b)" stroke-width="3.5" stroke="#FFF" stroke-linejoin="round" stroke-linecap="round" stroke-miterlimit="3"/>
    </g>
    <defs>
      <filter id="c" x="-200%" y="-200%" width="400%" height="400%" filterUnits="objectBoundingBox" color-interpolation-filters="sRGB">
        <feOffset xmlns="http://www.w3.org/2000/svg" in="SourceGraphic"/>
        <feGaussianBlur xmlns="http://www.w3.org/2000/svg" stdDeviation="8.158" result="pf_100_offsetBlur"/>
        <feComposite xmlns="http://www.w3.org/2000/svg" in="SourceGraphic" in2="pf_100_offsetBlur" result="pf_100_inverse" operator="out"/>
        <feFlood xmlns="http://www.w3.org/2000/svg" flood-color="#FF4081" flood-opacity="1" result="pf_100_color"/>
        <feComposite xmlns="http://www.w3.org/2000/svg" in="pf_100_color" in2="pf_100_inverse" operator="in" result="pf_100_shadow"/>
        <feComposite xmlns="http://www.w3.org/2000/svg" in="pf_100_shadow" in2="SourceGraphic"/>
      </filter>
    </defs>
    <g filter="url(#c)">
      <radialGradient id="d" fx=".5" fy=".5" cx=".5" cy=".5" r=".5" gradientTransform="matrix(-301.493 1.111 1.493 -287.778 440.421 188.909)" gradientUnits="userSpaceOnUse">
        <stop offset="16.522%" stop-color="#ff4081"/>
        <stop offset="100%" stop-color="#303f9f"/>
      </radialGradient>
      <path d="M155.947 93.288q-2.751-21.475-8.251-41.981c-.643-2.398.851-4.345 3.333-4.345h117.068c11.73 0 21.253 9.523 21.253 21.253v137.489a4.486 4.486 0 01-4.484 4.484h-58.951c-1.327 0-2.167-1.1-2.167-2.903v-1.913c0-.675.36-1.294.95-1.624a13.089 13.089 0 003.35-2.862 20.877 20.877 0 002.732-4.055c1.542-2.959 2.748-7.056 2.748-10.967 0-5.464-2.374-11.581-6.544-15.751a22.27 22.27 0 00-15.732-6.529 22.2 22.2 0 00-15.717 6.514c-4.17 4.171-6.532 9.99-6.532 15.761.014 3.81.938 7.549 2.707 10.943a20.831 20.831 0 002.689 4.041 13.362 13.362 0 003.307 2.847c.715.402.981.898.992 1.711v1.855c0 1.832-.86 2.932-2.144 2.932h-55.826c-2.482 0-4.218-1.996-3.872-4.454 2.078-14.801 6.173-30.757 9.675-37.863h0c4.636-9.403 8.235-27.843 9.582-45.582.225-2.439-1.901-3.126-3.683-3.253h-2.029c-1.574 0-3.49 1.106-4.276 2.469-2.051 3.558-8.562 7.618-16.013 7.618-11.102 0-20.116-9.013-20.116-20.115 0-11.102 9.014-20.115 20.116-20.115 7.457 0 13.972 4.067 16.019 7.634.783 1.365 2.696 2.473 4.27 2.473h2.029c3.47-.4 3.783-3.275 3.517-5.712z" fill="url(#d)" stroke-width="3.5" stroke="#FFF" stroke-linejoin="round" stroke-linecap="round" stroke-miterlimit="3"/>
    </g>
    <defs>
      <filter id="e" x="-200%" y="-200%" width="400%" height="400%" filterUnits="objectBoundingBox" color-interpolation-filters="sRGB">
        <feOffset xmlns="http://www.w3.org/2000/svg" in="SourceGraphic"/>
        <feGaussianBlur xmlns="http://www.w3.org/2000/svg" stdDeviation="8.158" result="pf_100_offsetBlur"/>
        <feComposite xmlns="http://www.w3.org/2000/svg" in="SourceGraphic" in2="pf_100_offsetBlur" result="pf_100_inverse" operator="out"/>
        <feFlood xmlns="http://www.w3.org/2000/svg" flood-color="#FF4081" flood-opacity="1" result="pf_100_color"/>
        <feComposite xmlns="http://www.w3.org/2000/svg" in="pf_100_color" in2="pf_100_inverse" operator="in" result="pf_100_shadow"/>
        <feComposite xmlns="http://www.w3.org/2000/svg" in="pf_100_shadow" in2="SourceGraphic"/>
      </filter>
    </defs>
    <g filter="url(#e)">
      <radialGradient id="f" fx=".5" fy=".5" cx=".5" cy=".5" r=".5" gradientTransform="matrix(-294.667 -.56 0 279.226 437.675 197.078)" gradientUnits="userSpaceOnUse">
        <stop offset="14.783%" stop-color="#ff4081"/>
        <stop offset="100%" stop-color="#303f9f"/>
      </radialGradient>
      <path d="M228.812 214.42h56.04a4.5 4.5 0 014.498 4.498v94.392c0 11.729-9.523 21.252-21.253 21.252H151.003c-2.475 0-5.47-1.75-6.684-3.906q-3.175-5.666-8.067-38.418c1.798-.25 3.048-.5 4.236.68a14.073 14.073 0 002.934 2.833 20.776 20.776 0 003.969 2.257 25.358 25.358 0 0010.253 2.157c.891 0 1.783-.057 2.674-.143a23.576 23.576 0 0014.955-7.694 23.515 23.515 0 006.011-15.688c0-.877-.057-1.74-.143-2.603a23.594 23.594 0 00-7.679-14.955 23.613 23.613 0 00-15.703-6.025 26.7 26.7 0 00-2.618.143 25.341 25.341 0 00-11.23 4.127 21.3 21.3 0 00-3.94 3.322 13.632 13.632 0 00-2.603 3.782c-1.131 1.807-2.068 1.494-3.978 1.59-.818-17.075.389-34.5 2.202-47.149.352-2.457 2.654-4.452 5.136-4.452h52.72c2.365 0 4.614-1.582 5.947-2.904 1.333-1.321 2.184-2.894 2.185-4.409l.002-1.953c.001-1.515-1.063-3.36-2.375-4.118-3.424-1.978-7.329-8.249-7.324-15.423.008-10.689 8.692-19.361 19.381-19.353 10.689.008 19.361 8.692 19.353 19.381-.005 7.18-3.925 13.449-7.361 15.418-1.315.753-2.383 2.594-2.384 4.109l-.002 1.953c-.001 1.515.942 3.135 2.192 4.395 1.25 1.259 3.5 2.904 5.75 2.904z" fill="url(#f)" stroke-width="3.5" stroke="#FFF" stroke-linejoin="round" stroke-linecap="round" stroke-miterlimit="3"/>
    </g>
    <defs>
      <filter id="g" x="-200%" y="-200%" width="400%" height="400%" filterUnits="objectBoundingBox" color-interpolation-filters="sRGB">
        <feOffset xmlns="http://www.w3.org/2000/svg" in="SourceGraphic"/>
        <feGaussianBlur xmlns="http://www.w3.org/2000/svg" stdDeviation="8.158" result="pf_100_offsetBlur"/>
        <feComposite xmlns="http://www.w3.org/2000/svg" in="SourceGraphic" in2="pf_100_offsetBlur" result="pf_100_inverse" operator="out"/>
        <feFlood xmlns="http://www.w3.org/2000/svg" flood-color="#FF4081" flood-opacity="1" result="pf_100_color"/>
        <feComposite xmlns="http://www.w3.org/2000/svg" in="pf_100_color" in2="pf_100_inverse" operator="in" result="pf_100_shadow"/>
        <feComposite xmlns="http://www.w3.org/2000/svg" in="pf_100_shadow" in2="SourceGraphic"/>
      </filter>
    </defs>
    <g filter="url(#g)">
      <radialGradient id="h" fx=".5" fy=".5" cx=".5" cy=".5" r=".5" gradientTransform="matrix(292.667 .264 -3.333 294.403 -145.325 187.999)" gradientUnits="userSpaceOnUse">
        <stop offset="15.217%" stop-color="#ff4081"/>
        <stop offset="100%" stop-color="#303f9f"/>
      </radialGradient>
      <path d="M71.545 172.103h66.256c2.483 0 3.607 1.808 2.51 4.035-4.65 9.431-12.713 50.989-11.209 88.658.123.954.436 2.079 1.435 2.954 1 .875 2.063 1.125 3.269 1.135l2.072-.229c1.608-.177 3.44-1.524 4.089-3.004 1.695-3.865 7.887-8.747 15.499-9.586 11.34-1.252 21.562 6.939 22.813 18.279 1.251 11.34-6.94 21.562-18.28 22.814-7.617.84-14.73-2.58-17.223-5.993-.953-1.306-3.032-2.222-4.64-2.045l-2.072.229c-.964.213-1.839.463-2.714 1.463s-1.125 2.5-1.017 3.59q4.681 30.776 7.759 36.24c1.218 2.163.192 3.919-2.291 3.919H23.003c-11.73 0-21.253-9.523-21.253-21.252V178.101a6 6 0 015.998-5.998h37.079c1.548 0 1.803.804 1.803 2.381v1.714c0 .452-.287 1.002-.762 1.248a11.828 11.828 0 00-3.049 2.618 18.756 18.756 0 00-2.487 3.71 21.821 21.821 0 00-2.488 10.037 20.414 20.414 0 005.968 14.394 20.34 20.34 0 0014.38 5.954 20.4 20.4 0 0014.394-5.954 20.4 20.4 0 005.953-14.394 21.894 21.894 0 00-2.473-10.023 18.049 18.049 0 00-2.474-3.696 11.665 11.665 0 00-3.091-2.66 1.42 1.42 0 01-.719-1.237v-1.711c0-1.577.374-2.381 1.763-2.381z" fill="url(#h)" stroke-width="3.5" stroke="#FFF" stroke-linejoin="round" stroke-linecap="round" stroke-miterlimit="3"/>
    </g>
  </g>
  <filter id="blur" x="-200%" y="-200%" width="400%" height="400%" filterUnits="objectBoundingBox" color-interpolation-filters="sRGB">
    <feGaussianBlur xmlns="http://www.w3.org/2000/svg" in="SourceGraphic" stdDeviation="4"/>
  </filter>
  <linearGradient id="i" x1=".386" y1=".386" x2=".944" y2=".944" gradientTransform="matrix(197.987 0 0 198 169.104 0)" gradientUnits="userSpaceOnUse">
    <stop offset="0%" stop-color="#00bcd4"/>
    <stop offset="100%" stop-color="#3f51b5"/>
  </linearGradient>
  <path d="M301.322 22.654c-30.204-30.205-79.365-30.205-109.569 0-30.199 30.211-30.199 79.364 0 109.576 26.898 26.891 68.79 29.772 98.975 8.774.635 3.005 2.089 5.873 4.426 8.211l43.988 43.987c6.41 6.397 16.769 6.397 23.146 0 6.404-6.404 6.404-16.762 0-23.146L318.3 126.055c-2.324-2.318-5.198-3.778-8.204-4.413 21.012-30.192 18.131-72.077-8.774-98.988zm-13.888 95.688c-22.55 22.55-59.25 22.55-81.794 0-22.537-22.55-22.537-59.244 0-81.794 22.544-22.544 59.244-22.544 81.794 0 22.551 22.55 22.551 59.244 0 81.794z" fill-rule="evenodd" fill="url(#i)"/>
  <radialGradient id="j" fx=".5" fy=".5" cx=".5" cy=".5" r=".5" gradientTransform="matrix(115.61 0 0 115.615 188.737 19.64)" gradientUnits="userSpaceOnUse">
    <stop offset="79.13%" stop-opacity=".13" stop-color="#fff"/>
    <stop offset="100%" stop-opacity=".65" stop-color="#fff"/>
  </radialGradient>
  <clipPath id="clip">
    <path id="glass" d="M287.434 118.342c-22.55 22.55-59.25 22.55-81.794 0-22.537-22.55-22.537-59.244 0-81.794 22.544-22.544 59.244-22.544 81.794 0 22.551 22.55 22.551 59.244 0 81.794z"/>
  </clipPath>
  <g style="clip-path: url(#clip)">
    <use href="#backdrop" style="filter: url(#blur)" />
  </g>
  <use href="#glass" fill="url(#j)"/>
</svg>
