<svg xmlns="http://www.w3.org/2000/svg" style="isolation:isolate" viewBox="0 0 265 212">
  <defs>
    <clipPath id="a">
      <path d="M0 0h265v212H0z"/>
    </clipPath>
  </defs>
  <g clip-path="url(#a)">
    <path class="chevron-l" d="M19.703 132.127h-2.035c-1.458 0-3.349-.949-4.22-2.117Q0 111.973 0 105.425q0-6.549 13.448-24.585c.871-1.169 2.762-2.117 4.22-2.117h2.035m0 53.404h3.787c1.457 0 1.935-.95 1.065-2.12q-13.451-18.096-13.451-24.582 0-6.487 13.451-24.583c.87-1.17.392-2.119-1.065-2.119h-3.787" fill-rule="evenodd" fill="#3F51B5"/>
    <path class="chevron-r" d="M243.948 132.127h2.035c1.457 0 3.348-.949 4.219-2.117q13.448-18.037 13.448-24.585 0-6.549-13.448-24.585c-.871-1.169-2.762-2.117-4.219-2.117h-2.035m0 53.404h-3.787c-1.458 0-1.935-.95-1.066-2.12q13.452-18.096 13.452-24.582 0-6.487-13.452-24.583c-.869-1.17-.392-2.119 1.066-2.119h3.787" fill-rule="evenodd" fill="#3F51B5"/>
    <path class="chevron-b" d="M158.527 191.147v2.035c0 1.458-.948 3.348-2.117 4.219q-18.036 13.449-24.585 13.449-6.548 0-24.585-13.449c-1.168-.871-2.117-2.761-2.117-4.219v-2.035m53.404 0v-3.787c0-1.458-.95-1.935-2.119-1.065q-18.096 13.451-24.583 13.451-6.486 0-24.582-13.451c-1.17-.87-2.12-.393-2.12 1.065v3.787" fill-rule="evenodd" fill="#3F51B5"/>
    <path class="chevron-t" d="M158.527 19.703v-2.035c0-1.458-.948-3.349-2.117-4.22Q138.374 0 131.825 0q-6.548 0-24.585 13.448c-1.168.871-2.117 2.762-2.117 4.22v2.035m53.404 0v3.787c0 1.457-.95 1.935-2.119 1.065q-18.096-13.451-24.583-13.451-6.486 0-24.582 13.451c-1.17.87-2.12.392-2.12-1.065v-3.787" fill-rule="evenodd" fill="#3F51B5"/>
    <defs>
      <filter id="b" x="-200%" y="-200%" width="400%" height="400%" filterUnits="objectBoundingBox" color-interpolation-filters="sRGB">
        <feGaussianBlur xmlns="http://www.w3.org/2000/svg" stdDeviation="2.376"/>
      </filter>
    </defs>
    <g filter="url(#b)" class="shadow">
      <path d="M55.527 40.455h132.29c9.933 0 17.998 8.065 17.998 17.999v77.92c0 9.933-8.065 17.998-17.998 17.998H55.527c-9.934 0-17.999-8.065-17.999-17.998v-77.92c0-9.934 8.065-17.999 17.999-17.999z" fill="#b3b8db"/>
    </g>
    <defs>
      <linearGradient id="c" x1=".282" y1=".268" x2=".963" y2=".938">
        <stop offset="0%" stop-color="#303f9f"/>
        <stop offset="98.696%" stop-color="#ff4081"/>
      </linearGradient>
    </defs>
    <path class="area" d="M65.68 48.466h132.29c9.934 0 17.999 8.065 17.999 17.999v77.92c0 9.933-8.065 17.998-17.999 17.998H65.68c-9.933 0-17.998-8.065-17.998-17.998v-77.92c0-9.934 8.065-17.999 17.998-17.999z" fill="url(#c)"/>
  </g>
</svg>